<?xml version="1.0" encoding="utf-8"?>
<svg version="1.1" id="Layer_1" xmlns="http://www.w3.org/2000/svg" xmlns:xlink="http://www.w3.org/1999/xlink" x="0px" y="0px"
	 viewBox="0 0 41 41" style="enable-background:new 0 0 41 41;" xml:space="preserve">
<style type="text/css">
	.st0{fill:#0294FB;}
	.st1{fill:#FFFFFF;}
	.st2{fill:#005994;}
	.st3{fill:none;}
</style>
<g>
	<path class="st0" d="M41,20.5C41,31.9,31.8,41,20.5,41S0,31.9,0,20.5S9.2,0,20.4,0S41,9.2,41,20.5z"/>
	<path class="st1" d="M11.7,28.1l17.3-17.3l4.6,4.6L16.2,32.8L11.7,28.1z"/>
	<path class="st1" d="M4.9,21.3l4.6-4.7L20.8,28l-4.6,4.8L4.9,21.3z"/>
	<path class="st2" d="M38.5,10.6c-1.1-1.9-2.4-3.7-4.1-5.2l-5.5,5.5l4.6,4.6l7.4,7.4C41,22,41,21.3,41,20.5
		C41.1,16.8,40.1,13.5,38.5,10.6z M11.7,28.1L0.3,16.8C0.1,18.1,0,19.3,0,20.5c0,5.4,2,10.3,5.4,13.9c1.5,1.6,3.2,3,5.2,4.1l5.7-5.7
		L11.7,28.1z"/>
</g>
<path class="st3" d="M-50.6-10.1"/>
</svg>
